<?xml version="1.0" standalone="no"?>
<!DOCTYPE svg PUBLIC "-//W3C//DTD SVG 20010904//EN"
 "http://www.w3.org/TR/2001/REC-SVG-20010904/DTD/svg10.dtd">
<svg version="1.0" xmlns="http://www.w3.org/2000/svg"
 width="540.000000pt" height="540.000000pt" viewBox="0 0 540.000000 540.000000"
 preserveAspectRatio="xMidYMid meet">

<g transform="translate(0.000000,540.000000) scale(0.100000,-0.100000)"
fill="#ffffff" stroke="none">
<path d="M4447 5083 c-4 -175 -16 -779 -26 -1343 -21 -1082 -30 -1503 -34
-1506 -1 -1 -92 13 -202 31 l-199 32 -66 -71 c-37 -39 -80 -87 -97 -105 l-30
-35 -62 28 c-170 76 -362 73 -529 -10 -85 -41 -185 -131 -233 -207 -18 -29
-34 -54 -35 -55 -1 -2 -45 21 -96 52 -52 31 -103 56 -114 56 -20 0 -127 -121
-290 -327 -31 -40 -61 -73 -65 -73 -4 0 -20 21 -35 47 -15 27 -83 138 -152
248 -68 110 -208 335 -310 500 -232 375 -374 602 -1202 1917 -507 807 -666
1051 -668 1032 -3 -18 182 -331 706 -1197 753 -1244 785 -1301 1244 -2213
l102 -202 -34 -123 c-18 -68 -35 -128 -37 -132 -3 -5 -33 18 -67 50 -34 32
-189 175 -346 318 -229 210 -634 583 -861 795 -36 33 -44 55 -165 425 -70 215
-220 671 -335 1015 l-207 625 -1 -140 -1 -140 304 -911 303 -911 264 -335
c196 -248 321 -396 484 -569 609 -650 1008 -1069 1015 -1069 4 0 24 23 44 50
l37 51 62 -34 c34 -19 178 -98 320 -175 142 -78 261 -142 263 -142 2 0 4 13 4
29 0 62 6 63 81 26 65 -33 69 -37 69 -70 0 -34 2 -36 98 -83 231 -116 341
-162 469 -195 l132 -35 44 61 c24 34 116 171 206 303 l162 241 -21 44 -21 44
32 59 32 59 33 -38 32 -39 39 85 c22 46 86 189 144 317 l104 232 70 -5 c39 -3
84 -8 100 -11 l31 -4 227 1222 c126 673 228 1236 227 1251 0 16 -74 374 -165
796 -91 422 -165 770 -165 774 0 4 -20 7 -45 7 -43 0 -44 -1 -39 -27 3 -16 65
-379 138 -808 l133 -780 -47 -180 c-27 -99 -128 -457 -225 -795 -98 -338 -180
-625 -182 -637 -4 -17 -18 -27 -56 -38 -28 -8 -56 -15 -62 -15 -6 0 -40 30
-77 68 l-66 67 -32 755 -33 755 17 645 c9 355 19 723 22 818 l6 172 -29 0 -30
0 -6 -317z m-385 -2916 c83 -104 126 -198 165 -360 69 -287 10 -540 -169 -732
-159 -170 -356 -255 -593 -255 -302 0 -573 164 -701 425 -50 102 -72 178 -80
280 -8 86 9 223 39 315 l22 69 83 -50 c45 -28 82 -56 82 -63 0 -8 -8 -33 -17
-57 -12 -32 -16 -76 -17 -164 0 -105 4 -129 26 -187 77 -205 242 -351 443
-393 304 -64 591 97 703 393 22 58 26 82 26 187 0 105 -4 129 -26 187 -37 98
-85 171 -155 240 -35 33 -63 62 -63 65 0 3 34 43 76 89 74 82 76 83 99 68 13
-9 39 -34 57 -57z m-447 -57 c155 -40 287 -142 359 -279 162 -309 8 -672 -334
-787 -77 -26 -253 -26 -330 0 -195 65 -340 220 -385 407 -94 401 284 763 690
659z m518 -1258 l89 -89 -167 -229 c-91 -126 -172 -235 -179 -242 -11 -11 -61
4 -294 87 -154 56 -285 101 -291 101 -5 0 -12 4 -15 9 -5 7 42 151 79 242 5
13 30 17 138 22 186 8 359 62 497 155 25 17 47 31 50 31 3 1 45 -39 93 -87z"/>
</g>
</svg>
